<?xml version="1.0" encoding="UTF-8" standalone="no"?>
<!DOCTYPE svg PUBLIC "-//W3C//DTD SVG 1.1//EN" "http://www.w3.org/Graphics/SVG/1.1/DTD/svg11.dtd">
<!-- Created with Vectornator (http://vectornator.io/) -->
<svg height="100%" stroke-miterlimit="10" style="fill-rule:nonzero;clip-rule:evenodd;stroke-linecap:round;stroke-linejoin:round;" version="1.1" viewBox="0 0 1024 1024" width="100%" xml:space="preserve" xmlns="http://www.w3.org/2000/svg" xmlns:vectornator="http://vectornator.io" xmlns:xlink="http://www.w3.org/1999/xlink">
<defs/>
<g id="Layer-1" vectornator:layerName="Layer 1">
<g opacity="1">
<path d="M528.438 105.562C504.846 104.82 481.209 107.265 458.062 111.75C445.791 114.128 433.65 117.072 421.656 120.594C407.738 124.681 394.03 129.503 380.594 134.969C373.972 137.662 367.376 140.456 360.906 143.5C353.859 146.815 346.944 150.422 340.094 154.125C332.139 158.426 324.176 162.832 316.562 167.719C306.486 174.187 296.76 181.274 287.312 188.625C283.39 191.677 279.553 194.846 275.688 197.969C268.492 203.782 261.4 209.676 254.531 215.875C248.724 221.116 243.135 226.577 237.531 232.031C223.724 245.472 210.571 259.54 198.562 274.625C189.229 286.35 180.42 298.562 172.438 311.25C168.266 317.88 164.405 324.714 160.438 331.469C155.107 340.544 149.844 349.661 144.812 358.906C125.118 395.091 107.235 432.665 96.75 472.656C88.5287 504.014 84.3477 536.189 86.3125 568.625C87.9919 596.35 94.1442 623.714 103.562 649.812C106.26 657.288 109.1 664.714 112.281 672C122.505 695.416 134.714 717.903 147.562 739.969C160.336 761.906 173.616 783.594 185.156 806.219C187.727 811.26 190.091 816.383 192.438 821.531C214.571 868.017 270.201 887.759 316.688 865.625C332.204 858.237 344.662 847.079 353.656 833.812C363.425 839.654 373.647 844.66 384.719 847.75C397.829 851.409 411.381 853.428 424.906 854.75C448.103 857.017 471.472 856.734 494.75 856.594C503.04 856.544 511.335 856.5 519.625 856.594C523.496 856.638 527.379 856.803 531.25 856.781C536.196 856.753 541.13 856.376 546.031 855.719C557.269 854.213 568.057 850.698 578.969 847.75C594.238 843.624 609.529 839.628 624.781 835.438C645.68 829.696 666.491 823.407 686.719 815.594C706.035 808.133 724.644 799.022 742.719 788.938C767.444 775.142 791.055 758.942 811.562 739.344C824.021 727.438 835.153 714.168 845.375 700.312C861.642 678.261 875.503 654.461 886.469 629.344C891.301 618.275 895.546 606.953 899.188 595.438C901.503 588.115 903.597 580.728 905.219 573.219C907.627 562.065 909.137 550.73 909.844 539.344C913.301 483.669 898.569 428.459 877.969 377.219C868.752 354.292 858.54 331.799 848.375 309.281C846.22 304.509 844.052 299.728 841.938 294.938C840.118 290.816 838.401 286.668 836.344 282.656C832.708 275.564 828.369 268.838 823.5 262.531C819.765 257.694 815.718 253.112 811.406 248.781C807.097 244.453 802.508 240.377 798.094 236.156C795.281 233.467 792.51 230.744 789.75 228C767.742 206.115 745.567 184.025 719.719 166.625C712.728 161.919 705.519 157.554 698.062 153.625C690.412 149.594 682.501 146.026 674.594 142.531C660.095 136.124 645.339 130.301 630.312 125.25C597.417 114.192 563.209 106.657 528.438 105.562ZM545.344 229C551.137 228.937 556.946 229.142 562.719 229.562C582.388 230.995 601.76 235.005 620.719 240.344C627.979 242.388 635.166 244.652 642.312 247.062C647.386 248.773 652.451 250.468 657.344 252.656C668.491 257.643 678.852 264.212 688.781 271.281C703.173 281.527 716.746 292.898 730.625 303.812C734.868 307.15 739.134 310.459 743.438 313.719C747.454 316.761 751.436 319.692 754.844 323.438C755.849 324.543 756.847 325.699 757.688 326.938C758.468 328.087 759.125 329.326 759.812 330.531C760.999 332.61 762.182 334.706 763.375 336.781C766.911 342.931 770.407 349.097 773.938 355.25C785.533 375.462 797.068 395.689 807.562 416.5C815.923 433.079 823.482 450.142 829.5 467.719C833.037 478.05 835.967 488.54 838.375 499.188C841.246 511.885 843.01 524.924 843.469 537.938C843.755 546.065 843.492 554.2 842.562 562.281C841.799 568.921 840.523 575.513 839.062 582.031C836.875 591.794 834.162 601.425 830.969 610.906C823.536 632.974 813.51 654.186 801.281 674C795.081 684.045 788.423 693.843 780.844 702.906C767.015 719.443 750.672 733.584 733.406 746.406C724.918 752.71 716.09 758.57 707.156 764.219C696.902 770.703 686.38 776.753 675.531 782.188C653.268 793.339 629.975 802.238 606.625 810.812C593.828 815.512 580.973 820.083 568.188 824.812C559.59 827.993 551.127 831.605 542.156 833.625C538.24 834.507 534.278 835.154 530.281 835.531C526.033 835.932 521.755 836.115 517.5 836.438C508.629 837.11 499.764 837.984 490.906 838.812C456.977 841.987 422.495 845.384 388.625 839.781C377.47 837.936 366.952 833.876 356.812 829C372.082 803.189 374.643 770.519 360.781 741.406C354.58 728.926 347.972 716.674 340.969 704.625C331.012 687.495 320.318 670.799 309.719 654.062C304.765 646.24 299.912 638.375 295.094 630.469C289.807 621.793 284.698 612.919 280.125 603.844C278.642 600.9 277.25 597.934 275.812 594.969C270.25 583.496 265.618 571.275 263.5 558.656C261.851 548.829 261.929 538.582 263.219 528.719C264.002 522.731 265.005 516.752 266.406 510.875C267.889 504.653 269.645 498.535 271.469 492.406C278.133 470.006 287.704 448.441 297.469 427.25C301.935 417.557 306.468 407.896 310.969 398.219C314.088 391.512 317.177 384.796 320.625 378.25C326.389 367.307 332.951 356.751 340.094 346.656C342.789 342.848 345.514 339.044 348.438 335.406C352.57 330.264 357.121 325.412 361.688 320.656C365.27 316.925 368.897 313.171 372.781 309.75C378.419 304.786 384.313 300.07 390.344 295.594C393.477 293.268 396.718 291.084 399.844 288.75C404.629 285.178 409.443 281.649 414.375 278.281C418.899 275.192 423.494 272.267 428.125 269.344C435.262 264.839 442.448 260.454 449.875 256.438C468.732 246.241 488.76 238.091 509.688 233.312C515.742 231.93 521.86 230.809 528.031 230.094C533.786 229.427 539.551 229.063 545.344 229Z" fill="#000000" stroke="none"/>
</g>
</g>
</svg>
