<?xml version="1.0" encoding="UTF-8" standalone="no"?>
<!DOCTYPE svg PUBLIC "-//W3C//DTD SVG 1.1//EN" "http://www.w3.org/Graphics/SVG/1.1/DTD/svg11.dtd">
<!-- Created with Vectornator (http://vectornator.io/) -->
<svg height="100%" stroke-miterlimit="10" style="fill-rule:nonzero;clip-rule:evenodd;stroke-linecap:round;stroke-linejoin:round;" version="1.1" viewBox="0 0 1024 1024" width="100%" xml:space="preserve" xmlns="http://www.w3.org/2000/svg" xmlns:vectornator="http://vectornator.io" xmlns:xlink="http://www.w3.org/1999/xlink">
<defs/>
<clipPath id="ArtboardFrame">
<rect height="1024" width="1024" x="0" y="0"/>
</clipPath>
<g clip-path="url(#ArtboardFrame)" id="Layer-1" vectornator:layerName="Layer 1">
<g opacity="1">
<path d="M214.906 127.406C196.867 126.955 178.917 135.198 167.656 151C149.64 176.282 155.53 211.359 180.812 229.375C204.259 245.37 228.001 260.976 251.781 276.469C264.318 284.636 276.854 292.826 289.156 301.344C306.255 313.183 322.899 325.616 339.344 338.344C347.923 344.983 356.389 351.806 364.875 358.562C367.558 360.699 370.308 362.75 373 364.875C378.474 369.198 383.903 373.565 389.312 377.969C391.58 379.814 393.876 381.626 396.094 383.531C398.375 385.49 400.585 387.543 402.812 389.562C405.74 392.216 408.7 394.869 411.531 397.625C416.106 402.079 420.405 406.787 424.906 411.312C426.524 412.939 428.223 414.502 429.875 416.094C433.193 419.292 436.464 422.551 439.781 425.75C442.533 428.404 445.328 430.986 448.094 433.625C455.274 440.475 462.413 447.396 469.406 454.438C484.182 469.314 498.688 484.496 512.906 499.906C523.847 511.764 534.567 523.814 545.281 535.875C562.001 554.696 578.641 573.579 594.812 592.875C609.335 610.203 623.476 627.855 637.531 645.562C655.773 668.544 673.848 691.66 692.031 714.688C725.696 757.321 758.799 800.413 790.844 844.281C800.405 857.37 809.871 870.521 819.281 883.719C826.059 893.224 832.999 902.654 839.031 912.656C845.553 923.471 851.255 934.762 856.875 946.062C858.917 950.167 860.945 954.277 863 958.375C864.464 961.295 865.967 964.177 867.375 967.125C870.044 972.713 872.442 978.441 874.969 984.094C873.054 978.188 871.283 972.231 869.219 966.375C868.128 963.282 866.931 960.228 865.781 957.156C864.176 952.866 862.591 948.577 861 944.281C856.55 932.267 852.038 920.246 846.625 908.625C841.588 897.811 835.566 887.484 829.719 877.094C821.546 862.573 813.276 848.083 804.938 833.656C776.085 783.74 745.858 734.66 715.594 685.594C693.402 649.615 671.504 613.434 648.688 577.844C641.142 566.074 633.625 554.313 625.906 542.656C609.336 517.631 592.463 492.79 575.406 468.094C566.248 454.833 557.069 441.586 547.75 428.438C541.763 419.99 535.674 411.599 529.594 403.219C521.093 391.502 512.681 379.725 503.812 368.281C501.323 365.069 498.731 361.92 496.188 358.75C494.131 356.187 492.097 353.57 489.938 351.094C485.302 345.78 480.394 340.693 475.625 335.5C473.46 333.142 471.38 330.702 469.25 328.312C466.715 325.468 464.15 322.669 461.594 319.844C458.336 316.244 455.207 312.521 452 308.875C445.169 301.109 438.223 293.432 431.062 285.969C423.556 278.145 415.691 270.632 407.781 263.219C399.299 255.269 390.685 247.393 381.844 239.844C360.428 221.559 337.913 204.562 315.219 187.906C304.057 179.714 292.722 171.754 281.469 163.688C269.592 155.174 257.787 146.566 246.062 137.844C236.582 131.088 225.73 127.677 214.906 127.406Z" fill="#000000" stroke="none"/>
</g>
<g opacity="1">
<path d="M841.906 140.938C832.845 141.166 823.718 143.593 815.312 148.438C802.103 156.415 788.802 164.223 775.438 171.938C764.841 178.054 754.147 184.044 743.531 190.125C727.967 199.041 712.43 207.991 696.938 217.031C688.167 222.149 679.365 227.256 670.688 232.531C661.6 238.056 652.63 243.743 643.688 249.5C634.133 255.651 624.63 261.953 615.406 268.594C606.522 274.99 597.817 281.686 589.25 288.5C586.41 290.758 583.639 293.077 580.781 295.312C577.486 297.891 574.139 300.42 570.844 303C568.47 304.858 566.134 306.78 563.75 308.625C557.732 313.283 551.408 317.567 545.531 322.406C540.032 326.934 534.535 331.509 529.219 336.25C518.619 345.703 508.302 355.452 497.875 365.094C482.919 378.924 468.281 393.098 453.906 407.531C437.772 423.731 421.85 440.138 406.406 457C383.049 482.502 360.795 509.046 339.688 536.438C306.181 579.919 276.17 625.99 247.781 672.938C236.572 691.474 225.581 710.116 214.75 728.875C207.135 742.064 199.416 755.254 192.594 768.875C179.512 794.996 169.235 822.4 159.406 849.875C155.176 861.702 151.009 873.539 146.719 885.344C144.543 891.33 142.065 897.256 140.281 903.375C137.486 912.965 136.199 922.919 134.031 932.656C137.2 923.28 139.54 913.603 143.312 904.438C145.918 898.107 149.263 892.061 152.25 885.906C157.497 875.091 162.705 864.26 167.938 853.438C179.915 828.666 192.255 803.972 206.969 780.688C214.407 768.917 222.652 757.711 230.812 746.438C241.927 731.083 253.161 715.838 264.594 700.719C284.656 674.187 305.506 648.222 327.156 622.969C351.39 594.701 376.809 567.334 403.844 541.719C418.89 527.463 434.427 513.724 450.281 500.375C465.811 487.3 481.588 474.498 497.781 462.25C508.568 454.091 519.553 446.184 530.594 438.375C541.658 430.549 552.869 422.937 564.219 415.531C571.433 410.824 578.722 406.266 585.938 401.562C588.425 399.941 590.888 398.279 593.375 396.656C595.364 395.358 597.423 394.136 599.375 392.781C604.878 388.962 610.229 384.89 615.812 381.188C620.982 377.759 626.255 374.511 631.531 371.25C633.872 369.803 636.311 368.489 638.719 367.156C641.997 365.342 645.259 363.549 648.562 361.781C661.06 355.095 673.66 348.531 686.156 341.844C698.016 335.497 709.967 329.382 721.906 323.188C735.692 316.036 749.508 308.962 763.375 301.969C774.394 296.412 785.475 290.951 796.469 285.344C821.633 272.509 846.678 259.447 871.438 245.844C898.335 230.341 907.565 195.96 892.062 169.062C881.405 150.57 861.841 140.435 841.906 140.938Z" fill="#000000" stroke="none"/>
</g>
</g>
</svg>
