<?xml version="1.0" encoding="UTF-8" standalone="no"?>
<!DOCTYPE svg PUBLIC "-//W3C//DTD SVG 1.1//EN" "http://www.w3.org/Graphics/SVG/1.1/DTD/svg11.dtd">
<!-- Created with Vectornator (http://vectornator.io/) -->
<svg height="100%" stroke-miterlimit="10" style="fill-rule:nonzero;clip-rule:evenodd;stroke-linecap:round;stroke-linejoin:round;" version="1.1" viewBox="0 0 1024 1024" width="100%" xml:space="preserve" xmlns="http://www.w3.org/2000/svg" xmlns:vectornator="http://vectornator.io" xmlns:xlink="http://www.w3.org/1999/xlink">
<defs/>
<g id="Layer-2" vectornator:layerName="Layer 2">
<path d="M0 0L1024 0L1024 1024L0 1024L0 0Z" fill="#ffffff" fill-rule="nonzero" opacity="1" stroke="#000000" stroke-linecap="butt" stroke-linejoin="round" stroke-opacity="0" stroke-width="123.543" vectornator:blendMode="multiply"/>
</g>
<clipPath id="ArtboardFrame">
<rect height="1024" width="1024" x="0" y="0"/>
</clipPath>
<g clip-path="url(#ArtboardFrame)" id="Layer-1" vectornator:layerName="Layer 1">
<g opacity="1">
<path d="M447.375 96.0938C421.579 96.8272 395.624 102.679 371.562 111.531C347.52 120.377 324.363 131.893 303.219 146.406C295.046 152.016 287.095 157.957 279.562 164.406C273.648 169.47 267.953 174.79 262.344 180.188C252.542 189.62 243.204 199.584 234.562 210.094C222.421 224.859 211.399 240.565 202.156 257.312C197.17 266.348 192.46 275.691 189.031 285.438C186.166 293.583 183.903 302.048 182.438 310.562C180.752 320.358 180.228 330.329 180.031 340.25C179.869 348.418 180.01 356.568 180.594 364.719C181.167 372.714 181.747 380.733 183 388.656C184.387 397.426 186.546 406.077 189.25 414.531C194.408 430.66 201.814 445.88 209.781 460.781C223.069 485.635 237.411 510.266 257.156 530.625C263.52 537.186 270.389 543.275 277.781 548.656C293.622 560.189 311.633 568.742 330.406 574.281C340.672 577.31 351.302 579.823 362.031 580.188C373.569 580.579 385.091 578.759 396.156 575.562C408.269 572.063 420.082 567.302 430.344 559.875C435.053 556.467 439.416 552.624 443.656 548.656C446.637 545.867 449.521 542.982 452.719 540.438C470.709 525.51 473.178 498.834 458.25 480.844C443.322 462.853 416.647 460.354 398.656 475.281C394.34 478.947 390.288 482.879 386.281 486.875C384.969 488.183 383.674 489.493 382.312 490.75C381.858 491.169 381.384 491.578 380.906 491.969C380.727 492.116 380.549 492.285 380.375 492.438C380.343 492.466 380.27 492.53 380.312 492.531C380.393 492.534 380.715 492.393 380.688 492.406C379.288 493.066 377.843 493.678 376.406 494.25C373.447 495.429 370.384 496.458 367.25 497.062C366.088 497.287 364.789 497.583 363.594 497.5C362.572 497.429 361.535 497.188 360.531 497C359.224 496.756 357.923 496.478 356.625 496.188C350.875 494.902 345.219 493.162 339.75 490.969C332.669 488.129 325.902 484.445 319.875 479.75C308.956 471.245 300.419 460.046 292.594 448.75C289.033 443.609 285.677 438.353 282.344 433.062C278.474 426.92 274.643 420.743 270.938 414.5C265.203 404.84 259.753 394.875 255.625 384.406C252.073 375.398 249.908 365.871 248.656 356.281C247.964 350.977 247.401 345.6 247.25 340.25C247.063 333.631 247.642 327.034 248.406 320.469C248.903 316.202 249.461 311.976 250.406 307.781C252.981 296.358 257.477 285.315 262.531 274.781C268.765 261.788 276.402 249.571 284.75 237.844C291.452 228.43 298.799 219.398 306.531 210.812C311.83 204.929 317.379 199.316 323.219 193.969C339.264 179.277 357.599 167.151 376.844 157.094C402.041 143.926 429.938 134.312 458.531 133C470.171 132.466 481.81 133.569 493.281 135.5C513.647 138.929 534.46 146.236 550.719 159.188C561.011 167.386 569.9 177.394 577.344 188.219C586.158 201.036 593.013 215.27 597.344 230.219C599.877 238.965 601.471 247.972 602.594 257C604.867 275.273 604.872 293.784 603.469 312.125C602.284 327.603 600.123 342.976 597.375 358.25C595.152 370.609 592.566 382.871 589.062 394.938C582.389 417.92 573.226 440.098 563.875 462.094C559.348 472.742 554.818 483.378 550.375 494.062C549.026 497.308 547.743 500.58 546.438 503.844C545.63 505.863 544.861 507.887 543.906 509.844C541.299 515.189 537.854 520.1 534.844 525.219C538.22 520.294 542.013 515.618 545 510.438C546.353 508.091 547.448 505.594 548.625 503.156C550.149 499.999 551.683 496.855 553.25 493.719C558.418 483.373 563.696 473.089 568.938 462.781C579.689 441.638 590.251 420.325 598.438 398.031C603.563 384.073 607.429 369.721 610.938 355.281C614.952 338.758 618.252 322.04 620.312 305.156C622.212 289.595 623.032 273.89 622.375 258.219C621.647 240.843 619.126 223.839 613.625 207.312C607.407 188.634 597.974 170.948 585.844 155.438C579.502 147.329 572.43 139.705 564.5 133.125C555.397 125.571 545.248 119.358 534.562 114.312C523.279 108.984 511.404 105.032 499.312 102C485.944 98.6472 472.19 96.5126 458.406 96.0938C454.733 95.9821 451.06 95.989 447.375 96.0938Z" fill="#000000" stroke="none"/>
</g>
<g opacity="1">
<path d="M543.5 376.625C538.015 377.005 532.494 378.482 527.281 381.125C506.431 391.696 498.116 417.149 508.688 438C517.758 454.494 526.532 471.138 535.5 487.688C539.968 495.933 544.411 504.217 549.094 512.344C552.622 518.466 556.13 524.597 559.969 530.531C563.561 536.085 567.541 541.35 571.219 546.844C573.229 549.847 575.217 552.911 577.094 556C578.969 559.088 580.62 562.334 582.625 565.344C588.154 573.642 594.532 581.295 600.688 589.125C608.534 599.105 616.407 609.086 624.219 619.094C634.269 631.97 644.391 644.781 654.562 657.562C661.102 665.78 667.562 674.027 674.094 682.25C685.181 696.208 696.374 710.08 707.625 723.906C725.119 745.404 742.474 767.034 759.969 788.531C765.905 795.825 771.842 803.115 777.781 810.406C779.431 812.431 781.069 814.475 782.719 816.5C783.987 818.057 785.166 819.678 786.719 820.969C790.243 823.899 794.813 825.286 798.75 827.531C795.388 824.739 791.227 822.657 788.375 819.281C787.186 817.874 786.391 816.192 785.5 814.594C783.973 811.856 782.464 809.144 780.938 806.406C776.358 798.194 771.763 789.965 767.188 781.75C753.976 758.034 740.708 734.344 727.844 710.438C705.651 669.195 683.783 627.734 663.781 585.375C658.682 574.576 653.689 563.703 649 552.719C646.188 546.131 643.618 539.457 640.719 532.906C639.14 529.34 637.073 526.009 635.5 522.438C634.395 519.928 633.232 517.385 632.281 514.812C630.887 511.039 629.593 507.23 628.25 503.438C627.52 501.374 626.863 499.269 626.094 497.219C624.91 494.063 623.653 490.944 622.406 487.812C618.16 477.146 613.682 466.563 609.188 456C606.231 449.05 603.304 442.078 600.281 435.156C595.087 423.263 589.664 411.483 584.188 399.719C576.259 384.081 559.956 375.486 543.5 376.625Z" fill="#000000" stroke="none"/>
</g>
<g opacity="1">
<path d="M779.219 388.781C768.402 389.365 757.808 394.083 750 402.781C722.308 435.233 694.722 467.76 667.938 500.969C662.243 508.029 656.757 515.255 651.344 522.531C648.36 526.542 645.467 530.652 642.312 534.531C640.254 537.062 638.227 539.625 636.094 542.094C633.228 545.409 630.116 548.499 627.25 551.812C624.729 554.726 622.32 557.741 619.875 560.719C614.179 567.655 608.743 574.844 603.125 581.844C589.231 599.155 575.188 616.332 561.625 633.906C550.581 648.217 540.291 663.069 529.844 677.812C510.983 704.43 492.64 731.419 474.781 758.719C462.42 777.614 450.216 796.579 438.188 815.688C430.789 827.44 423.29 839.181 416.469 851.281C407.508 867.177 399.769 883.753 392.062 900.281C387.104 910.914 382.127 921.509 376.938 932.031C383.66 921.968 390.187 911.801 396.688 901.594C406.167 886.709 415.677 871.807 426.281 857.688C433.812 847.66 441.903 838.052 449.875 828.375C462.916 812.546 476.141 796.859 489.625 781.406C505.332 763.406 521.275 745.626 537.469 728.062C552.187 712.1 567.098 696.306 582.406 680.906C602.549 660.643 624.091 641.784 645.844 623.281C655.722 614.879 665.931 606.837 675.375 597.938C678.69 594.813 681.733 591.393 685 588.219C687.897 585.404 690.877 582.649 693.812 579.875C697.16 576.712 700.666 573.733 704.094 570.656C710.943 564.507 717.713 558.265 724.25 551.781C754.588 521.689 783.675 490.383 813 459.312C828.615 441.915 827.178 415.146 809.781 399.531C801.083 391.724 790.036 388.197 779.219 388.781Z" fill="#000000" stroke="none"/>
</g>
<g opacity="1">
<path d="M-29.4688 588.594C-34.9461 588.112-40.595 588.703-46.1562 590.5C-68.4013 597.687-80.5929 621.567-73.4062 643.812C-63.8466 671.313-55.5994 699.221-46.4062 726.844C-39.2681 748.292-31.5382 769.614-21.7188 790C-20.0821 793.398-18.4427 796.803-16.6562 800.125C-10.68 811.239-4.00761 821.965 2.21875 832.938C3.40335 835.025 4.65151 837.087 5.8125 839.188C8.43378 843.93 10.8335 848.809 13.6562 853.438C21.8209 866.826 31.0774 879.526 40.4375 892.094C58.9333 916.928 78.9741 940.481 100.719 962.531C111.011 972.968 121.776 982.963 132.906 992.5C151.852 1008.73 171.855 1023.7 193.375 1036.38C224.915 1054.95 259.324 1067.96 294.375 1078.19C310.686 1082.95 327.176 1087.07 343.719 1090.94C354.921 1093.56 366.104 1096.32 377.562 1097.56C394.845 1099.43 412.25 1098.77 429.594 1098.59C437.247 1098.52 444.882 1098.58 452.531 1098.81C443.672 1097.51 434.784 1096.47 425.875 1095.56C410.785 1094.03 395.631 1092.68 380.781 1089.47C376.57 1088.56 372.402 1087.51 368.281 1086.25C361.737 1084.25 355.281 1081.81 348.844 1079.5C336.771 1075.16 324.723 1070.74 312.812 1065.97C277.619 1051.87 243.463 1035.25 213.125 1012.28C183.436 989.806 157.744 962.294 135.562 932.469C124.568 917.686 114.078 902.518 104.844 886.562C99.6053 877.511 94.5234 868.369 89.75 859.062C85.2526 850.294 81.3003 841.264 77.125 832.344C75.2597 828.358 73.5029 824.324 71.5625 820.375C69.6219 816.426 67.4933 812.548 65.625 808.562C63.5178 804.068 61.5462 799.49 59.7188 794.875C56.2963 786.231 53.3027 777.393 50.2188 768.625C43.6345 749.906 37.7961 730.954 32.5625 711.812C29.2874 699.834 26.2633 687.773 23.1562 675.75C18.1383 656.334 12.8675 636.996 7.125 617.781C1.73503 601.097-13.0368 590.038-29.4688 588.594Z" fill="#000000" stroke="none"/>
</g>
<g opacity="1">
<path d="M666.375 1054.16C644.315 1061.89 632.7 1086.07 640.438 1108.12C648.175 1130.18 672.347 1141.77 694.406 1134.03C696.451 1132.17 698.761 1130.52 700.438 1128.28C700.934 1127.62 701.424 1126.95 701.75 1126.19C702.156 1125.24 702.252 1124.18 702.625 1123.22C702.926 1122.44 703.41 1121.76 703.75 1121C704.121 1120.17 704.495 1119.34 704.75 1118.47C705.337 1116.46 705.613 1114.37 706.125 1112.34C706.808 1109.64 707.527 1106.94 708.25 1104.25C708.699 1102.58 709.206 1100.92 709.656 1099.25C711.568 1092.15 713.278 1084.99 714.688 1077.78C710.2 1076.4 705.712 1074.98 701.344 1073.25C696.086 1071.17 690.985 1068.6 686.219 1065.56C684.729 1064.61 683.284 1063.57 681.906 1062.47C681.151 1061.86 680.456 1061.21 679.688 1060.62C679.072 1060.15 678.409 1059.72 677.75 1059.31C677.173 1058.95 676.519 1058.71 675.969 1058.31C675.23 1057.78 674.64 1057.07 673.906 1056.53C673.4 1056.16 672.849 1055.86 672.281 1055.59C671.119 1055.04 669.378 1054.45 668.094 1054.28C667.524 1054.21 666.948 1054.19 666.375 1054.16Z" fill="#000000" stroke="none"/>
</g>
<g opacity="1">
<path d="M957.375 807.781C942.171 825.009 927.372 842.607 912 859.688C903.426 869.215 894.496 878.381 885.719 887.719C877.241 896.739 868.855 905.859 860.406 914.906C847.191 929.06 833.851 943.152 820.156 956.844C806.715 970.283 793.024 983.42 778.469 995.656C771.261 1001.72 763.863 1007.56 756.406 1013.31C743.677 1023.13 730.611 1032.56 716.625 1040.53C710.955 1043.76 705.058 1046.49 699.156 1049.25C696.519 1050.48 693.813 1051.59 691.188 1052.84C688.665 1054.05 686.215 1055.44 683.625 1056.5C681.124 1057.53 678.479 1058.37 675.875 1059.09C670.814 1060.5 665.5 1061.07 660.281 1061.5C655.887 1061.86 651.503 1062.3 647.094 1062.47C642.686 1062.64 638.284 1062.58 633.875 1062.53C620.79 1062.4 607.797 1061.26 594.75 1060.38C579.551 1059.34 564.329 1058.7 549.094 1059C525.746 1060.18 507.792 1080.06 508.969 1103.41C510.145 1126.75 530.027 1144.74 553.375 1143.56C559.745 1143.05 566.081 1142.7 572.469 1142.53C579.459 1142.35 586.477 1142.47 593.469 1142.41C621.043 1142.17 649.066 1141.94 675.688 1133.84C680.072 1132.51 684.37 1130.84 688.594 1129.06C696.89 1125.58 704.843 1121.28 712.781 1117.06C716.37 1115.16 720.028 1113.37 723.5 1111.25C726.484 1109.43 729.332 1107.34 732.156 1105.28C737.325 1101.52 742.204 1097.29 746.969 1093.03C754.07 1086.69 760.893 1080.04 767.531 1073.22C773.957 1066.61 780.137 1059.77 786.281 1052.91C793.293 1045.07 800.194 1037.12 806.875 1029C822.506 1009.99 837.077 990.113 851.062 969.875C861.103 955.346 870.764 940.556 880.531 925.844C886.631 916.657 892.809 907.501 899 898.375C905.523 888.758 912.2 879.257 918.562 869.531C931.873 849.184 944.364 828.319 957.375 807.781Z" fill="#000000" stroke="none"/>
</g>
<g opacity="1">
<path d="M842.062 168.531C842.695 173.96 842.878 179.51 843.969 184.875C844.43 187.146 845.146 189.367 845.781 191.594C846.64 194.607 847.484 197.612 848.344 200.625C851.035 210.06 853.761 219.494 856.531 228.906C862.233 248.281 868.181 267.609 874.812 286.688C879.011 298.766 883.605 310.689 888.188 322.625C893.217 335.724 898.871 348.52 905.094 361.094C907.452 365.86 909.905 370.562 912.531 375.188C915.252 379.98 918.11 384.699 921.125 389.312C923.012 392.2 924.983 394.984 927.125 397.688C927.827 398.573 928.495 399.472 929.25 400.312C930.737 401.967 932.449 403.469 934.031 405.031C935.997 406.971 937.88 409.03 939.75 411.062C941.199 412.637 942.514 414.317 943.906 415.938C944.698 416.859 945.528 417.724 946.344 418.625C947.403 419.795 948.407 421.016 949.5 422.156C952.815 425.618 956.344 428.864 959.938 432.031C963.342 435.032 966.745 438.021 970.375 440.75C977.94 446.436 986.012 451.419 994.25 456.062C998.546 458.484 1002.97 460.718 1007.31 463.062C1010.71 464.901 1014.07 466.832 1017.41 468.781C1038.14 479.588 1063.69 471.542 1074.5 450.812C1085.31 430.083 1077.26 404.525 1056.53 393.719C1048.51 390.014 1040.38 386.605 1032.22 383.219C1027.65 381.321 1023.04 379.498 1018.56 377.375C1012.3 374.403 1006.52 370.555 1000.47 367.188C997.366 365.46 994.213 363.797 991.031 362.219C988.756 361.09 986.436 360.02 984.25 358.719C982.482 357.667 980.666 356.509 979.062 355.219C977.803 354.205 976.655 353.079 975.375 352.094C974.73 351.598 974.012 351.152 973.344 350.688C969.405 347.95 965.266 345.481 961.5 342.5C952.536 335.405 944.52 327.139 937.031 318.531C932.136 312.905 927.433 307.121 922.875 301.219C918.198 295.162 913.733 288.91 909.281 282.688C901.773 272.194 894.513 261.528 887.562 250.656C881.065 240.494 874.936 230.122 868.781 219.75C864.192 212.016 859.675 204.244 855.156 196.469C853.582 193.76 852.011 191.053 850.438 188.344C849.531 186.784 848.597 185.22 847.812 183.594C845.483 178.76 843.973 173.536 842.062 168.531Z" fill="#000000" stroke="none"/>
</g>
<g opacity="1">
<path d="M270.594-95.375C259.771-94.9131 249.124-90.3287 241.219-81.7188C227.217-65.5044 212.236-50.1702 197.406-34.7188C188.011-24.9295 178.603-15.1216 169.844-4.75C165.308 0.620164 160.98 6.12889 156.844 11.8125C153.91 15.8433 151.156 20.0045 148.219 24.0312C146.112 26.9199 144.068 29.8478 141.938 32.7188C139.361 36.1909 136.614 39.5523 134.312 43.2188C128.157 53.0234 123.208 63.3056 118.531 73.875C113.906 84.3279 109.705 94.9312 105.594 105.594C97.6088 126.303 90.8403 147.422 84.9375 168.812C79.32 189.169 74.5065 209.704 70.5 230.438C67.582 245.538 65.1775 260.745 63 275.969C61.9719 283.157 60.8227 290.358 60.1875 297.594C59.725 302.863 59.601 308.151 59.75 313.438C60.3785 335.733 65.9011 357.491 70.9688 379.094C73.6562 390.55 76.1268 402.026 77.9375 413.656C78.0151 395.897 76.3975 378.238 75.25 360.531C74.1025 342.825 73.543 324.805 76.8438 307.281C78.4725 298.634 81.2324 290.233 83.8438 281.844C88.5091 266.855 93.7003 252.026 99.25 237.344C113.637 199.281 131.175 162.318 153.062 127.969C158.015 120.196 163.326 112.637 168.75 105.188C171.828 100.96 175.117 96.9008 178.562 92.9688C180.823 90.3897 183.129 87.8455 185.406 85.2812C186.548 83.9961 187.765 82.7806 188.875 81.4688C190.74 79.2654 192.434 76.9174 194.344 74.75C201.068 67.1194 209.196 60.9748 216.875 54.375C222.539 49.5072 228.1 44.5405 233.75 39.6562C240.095 34.171 246.352 28.5954 252.656 23.0625C259.153 17.3602 265.692 11.7156 272.094 5.90625C282.89-3.89028 293.381-14.036 303.562-24.4688C319.373-41.6887 318.251-68.4397 301.031-84.25C292.421-92.1552 281.417-95.8369 270.594-95.375Z" fill="#000000" stroke="none"/>
</g>
</g>
</svg>
